<svg width="818" height="818" viewBox="0 0 818 818" fill="none" xmlns="http://www.w3.org/2000/svg">
<mask id="path-1-outside-1_565_3170" maskUnits="userSpaceOnUse" x="111" y="72" width="517" height="726" fill="black">
<rect fill="white" x="111" y="72" width="517" height="726"/>
<path fill-rule="evenodd" clip-rule="evenodd" d="M447.898 761.853C528.296 761.51 591.544 698.136 591.887 617.586C592.007 589.084 591.975 560.151 591.944 532.004L591.936 524.862C591.92 514.37 591.904 503.862 591.904 493.354C591.887 491.214 591.708 489.236 591.528 487.488C591.463 486.801 591.398 486.115 591.349 485.396C590.973 480.591 588.004 476.391 583.614 474.43C579.225 472.486 574.117 473.107 570.331 476.065C537.597 501.493 507.328 500.855 475.051 474.022C471.216 470.835 465.929 470.116 461.393 472.143C456.856 474.169 453.854 478.598 453.658 483.566C452.141 522.492 434.876 544.26 397.688 554.114C393.439 555.228 389.19 556.317 384.953 557.403L384.944 557.405L384.926 557.41L383.312 557.823C378.628 559 373.961 560.193 369.311 561.419C355.221 565.145 341.161 568.886 326.82 572.702L325.497 573.054L307.972 577.728C304.088 578.758 300.89 581.519 299.307 585.229C297.74 588.922 297.936 593.138 299.878 596.668C300.251 597.339 300.61 597.987 300.957 598.615L300.97 598.639C301.439 599.486 301.888 600.296 302.326 601.081L302.525 601.442C303.91 603.954 305.124 606.155 306.307 608.386C310.354 616.017 308.527 623.861 301.885 627.489C295.179 631.134 287.901 628.748 283.805 621.508C276.038 607.814 268.482 593.972 261.352 580.359C258.936 575.783 258.463 571.306 260.013 567.792C261.58 564.229 265.219 561.549 270.261 560.226C284.36 556.5 298.736 552.79 312.639 549.211C331.584 544.325 351.149 539.275 370.388 534.111C382.512 530.859 395.42 527.101 407.625 521.757C421.496 515.661 428.871 502.195 426.864 486.622C424.661 469.446 415.327 457.778 400.576 453.758C392.023 451.417 383.066 452.553 376.499 453.385L376.393 453.398C353.089 456.382 329.416 459.498 306.441 462.522L302.881 462.991L300.938 463.247L300.922 463.249C272.65 466.977 243.489 470.821 214.78 474.447C182.993 478.451 161.47 496.639 152.527 527.019C147.045 545.632 146.539 564.23 151.026 582.32C158.271 611.539 165.745 637.736 173.904 662.412C183.76 692.252 201.873 717.321 226.284 734.889C250.582 752.391 280.068 761.706 311.545 761.853C334.08 761.951 357.268 762 379.869 762C402.469 762 425.2 761.951 447.898 761.853Z"/>
<path d="M585.442 334.38C578.294 323.774 566.48 317.564 553.002 317.351H552.251C543.635 317.351 536.015 319.721 529.798 324.15C523.58 328.578 518.783 335.083 515.797 343.352C514.524 346.881 513.219 350.33 511.913 353.614C509.929 358.595 507.925 363.575 505.925 368.548L505.921 368.558L505.85 368.735C505.276 370.161 504.702 371.587 504.129 373.012C498.581 386.772 492.854 401.006 487.469 415.158C479.555 435.912 488.644 457.696 508.601 465.818C513.659 467.877 518.799 468.858 523.809 468.858C539.131 468.858 553.23 459.69 559.79 444.083C571.327 416.547 580.595 393.636 588.966 371.95C594.009 358.893 592.719 345.182 585.442 334.38Z"/>
<path d="M489.786 303.869C485.527 294.505 477.727 287.364 467.838 283.736C447.49 276.268 426.587 285.795 418.15 306.386C407.381 332.648 396.66 359.399 386.314 385.285L380.358 400.156C379.183 403.081 378.579 405.876 378.269 407.379L378.188 407.706C376.572 414.178 380.081 420.861 386.347 423.166L434.664 440.978C436.149 441.534 437.65 441.779 439.152 441.779C444.08 441.779 448.779 438.968 450.998 434.262L451.044 434.17L451.047 434.164L451.08 434.095C451.151 433.95 451.238 433.771 451.341 433.576L451.442 433.371C452.138 431.962 453.249 429.711 454.213 427.268C456.807 420.665 459.386 414.063 461.948 407.461C464.689 400.401 467.43 393.358 470.221 386.315C472.652 380.137 475.133 373.96 477.629 367.799L478.126 366.561C482.214 356.375 486.423 345.886 490.406 335.442C494.437 324.803 494.224 313.593 489.786 303.869Z"/>
<path d="M382.871 146.333C382.822 130.024 372.721 115.937 357.138 110.43C344.703 106.034 331.714 107.651 321.483 114.891C310.811 122.441 304.676 134.942 304.659 149.193C304.61 198.153 304.61 247.114 304.627 296.091V349.169L274.961 354.709L271.958 344.806C267.487 329.984 262.967 315.015 258.463 300.062C254.367 286.449 250.288 272.836 246.192 259.223L246.188 259.21L246.187 259.206C239.335 236.365 232.483 213.525 225.583 190.701C220.263 173.052 207.323 161.727 190.972 160.387C177.51 159.276 165.255 164.26 157.325 174.049C148.888 184.475 146.522 198.758 150.847 213.204C161.453 248.65 172.288 284.651 182.781 319.476C188.035 336.913 193.289 354.333 198.528 371.754C202.999 386.641 207.453 401.529 211.99 416.662L217.881 436.305C219.545 441.894 224.669 445.62 230.364 445.62C230.919 445.62 231.49 445.587 232.061 445.505L336.74 431.876C341.929 431.19 346.205 427.496 347.624 422.463C348.848 418.116 349.958 413.932 351.018 409.896L351.178 409.295C353.256 401.46 355.227 394.033 357.709 387.181C362.164 374.826 367.141 362.308 371.954 350.215C374.582 343.629 377.192 337.044 379.754 330.441L379.836 330.229L379.867 330.147C381.138 326.853 382.871 322.358 382.871 317.172C382.969 270.466 383.067 208.824 382.871 146.333Z"/>
</mask>
<path fill-rule="evenodd" clip-rule="evenodd" d="M447.898 761.853C528.296 761.51 591.544 698.136 591.887 617.586C592.007 589.084 591.975 560.151 591.944 532.004L591.936 524.862C591.92 514.37 591.904 503.862 591.904 493.354C591.887 491.214 591.708 489.236 591.528 487.488C591.463 486.801 591.398 486.115 591.349 485.396C590.973 480.591 588.004 476.391 583.614 474.43C579.225 472.486 574.117 473.107 570.331 476.065C537.597 501.493 507.328 500.855 475.051 474.022C471.216 470.835 465.929 470.116 461.393 472.143C456.856 474.169 453.854 478.598 453.658 483.566C452.141 522.492 434.876 544.26 397.688 554.114C393.439 555.228 389.19 556.317 384.953 557.403L384.944 557.405L384.926 557.41L383.312 557.823C378.628 559 373.961 560.193 369.311 561.419C355.221 565.145 341.161 568.886 326.82 572.702L325.497 573.054L307.972 577.728C304.088 578.758 300.89 581.519 299.307 585.229C297.74 588.922 297.936 593.138 299.878 596.668C300.251 597.339 300.61 597.987 300.957 598.615L300.97 598.639C301.439 599.486 301.888 600.296 302.326 601.081L302.525 601.442C303.91 603.954 305.124 606.155 306.307 608.386C310.354 616.017 308.527 623.861 301.885 627.489C295.179 631.134 287.901 628.748 283.805 621.508C276.038 607.814 268.482 593.972 261.352 580.359C258.936 575.783 258.463 571.306 260.013 567.792C261.58 564.229 265.219 561.549 270.261 560.226C284.36 556.5 298.736 552.79 312.639 549.211C331.584 544.325 351.149 539.275 370.388 534.111C382.512 530.859 395.42 527.101 407.625 521.757C421.496 515.661 428.871 502.195 426.864 486.622C424.661 469.446 415.327 457.778 400.576 453.758C392.023 451.417 383.066 452.553 376.499 453.385L376.393 453.398C353.089 456.382 329.416 459.498 306.441 462.522L302.881 462.991L300.938 463.247L300.922 463.249C272.65 466.977 243.489 470.821 214.78 474.447C182.993 478.451 161.47 496.639 152.527 527.019C147.045 545.632 146.539 564.23 151.026 582.32C158.271 611.539 165.745 637.736 173.904 662.412C183.76 692.252 201.873 717.321 226.284 734.889C250.582 752.391 280.068 761.706 311.545 761.853C334.08 761.951 357.268 762 379.869 762C402.469 762 425.2 761.951 447.898 761.853Z" fill="black"/>
<path d="M585.442 334.38C578.294 323.774 566.48 317.564 553.002 317.351H552.251C543.635 317.351 536.015 319.721 529.798 324.15C523.58 328.578 518.783 335.083 515.797 343.352C514.524 346.881 513.219 350.33 511.913 353.614C509.929 358.595 507.925 363.575 505.925 368.548L505.921 368.558L505.85 368.735C505.276 370.161 504.702 371.587 504.129 373.012C498.581 386.772 492.854 401.006 487.469 415.158C479.555 435.912 488.644 457.696 508.601 465.818C513.659 467.877 518.799 468.858 523.809 468.858C539.131 468.858 553.23 459.69 559.79 444.083C571.327 416.547 580.595 393.636 588.966 371.95C594.009 358.893 592.719 345.182 585.442 334.38Z" fill="black"/>
<path d="M489.786 303.869C485.527 294.505 477.727 287.364 467.838 283.736C447.49 276.268 426.587 285.795 418.15 306.386C407.381 332.648 396.66 359.399 386.314 385.285L380.358 400.156C379.183 403.081 378.579 405.876 378.269 407.379L378.188 407.706C376.572 414.178 380.081 420.861 386.347 423.166L434.664 440.978C436.149 441.534 437.65 441.779 439.152 441.779C444.08 441.779 448.779 438.968 450.998 434.262L451.044 434.17L451.047 434.164L451.08 434.095C451.151 433.95 451.238 433.771 451.341 433.576L451.442 433.371C452.138 431.962 453.249 429.711 454.213 427.268C456.807 420.665 459.386 414.063 461.948 407.461C464.689 400.401 467.43 393.358 470.221 386.315C472.652 380.137 475.133 373.96 477.629 367.799L478.126 366.561C482.214 356.375 486.423 345.886 490.406 335.442C494.437 324.803 494.224 313.593 489.786 303.869Z" fill="black"/>
<path d="M382.871 146.333C382.822 130.024 372.721 115.937 357.138 110.43C344.703 106.034 331.714 107.651 321.483 114.891C310.811 122.441 304.676 134.942 304.659 149.193C304.61 198.153 304.61 247.114 304.627 296.091V349.169L274.961 354.709L271.958 344.806C267.487 329.984 262.967 315.015 258.463 300.062C254.367 286.449 250.288 272.836 246.192 259.223L246.188 259.21L246.187 259.206C239.335 236.365 232.483 213.525 225.583 190.701C220.263 173.052 207.323 161.727 190.972 160.387C177.51 159.276 165.255 164.26 157.325 174.049C148.888 184.475 146.522 198.758 150.847 213.204C161.453 248.65 172.288 284.651 182.781 319.476C188.035 336.913 193.289 354.333 198.528 371.754C202.999 386.641 207.453 401.529 211.99 416.662L217.881 436.305C219.545 441.894 224.669 445.62 230.364 445.62C230.919 445.62 231.49 445.587 232.061 445.505L336.74 431.876C341.929 431.19 346.205 427.496 347.624 422.463C348.848 418.116 349.958 413.932 351.018 409.896L351.178 409.295C353.256 401.46 355.227 394.033 357.709 387.181C362.164 374.826 367.141 362.308 371.954 350.215C374.582 343.629 377.192 337.044 379.754 330.441L379.836 330.229L379.867 330.147C381.138 326.853 382.871 322.358 382.871 317.172C382.969 270.466 383.067 208.824 382.871 146.333Z" fill="black"/>
<path d="M302.881 462.991L300.532 445.145L300.528 445.145L302.881 462.991ZM384.926 557.41L389.394 574.846L389.394 574.846L384.926 557.41ZM300.938 463.247L303.29 481.093L303.29 481.093L300.938 463.247ZM505.921 368.558L489.221 361.841L489.221 361.841L505.921 368.558ZM246.188 259.21L263.429 254.038L263.429 254.038L246.188 259.21ZM609.944 531.984C609.941 529.597 609.939 527.217 609.936 524.842L573.936 524.881C573.939 527.256 573.941 529.637 573.944 532.024L609.944 531.984ZM305.23 480.837C306.415 480.681 307.601 480.525 308.79 480.368L304.092 444.676C302.903 444.833 301.716 444.989 300.532 445.145L305.23 480.837ZM467.483 441.54C467.514 441.478 467.546 441.413 467.581 441.341L435.303 425.4C435.269 425.469 435.233 425.541 435.199 425.611L467.483 441.54ZM303.29 481.093C303.94 481.007 304.585 480.922 305.233 480.837L300.528 445.145C299.882 445.231 299.231 445.316 298.585 445.402L303.29 481.093ZM378.656 471.255C378.676 471.253 378.738 471.245 378.762 471.242L374.235 435.528C374.189 435.534 374.181 435.535 374.13 435.541L378.656 471.255ZM318.288 592.751C318.222 592.631 318.156 592.511 318.089 592.39L286.563 609.771C286.63 609.893 286.696 610.013 286.762 610.133L318.288 592.751ZM330.126 590.449C330.566 590.332 331.009 590.214 331.448 590.097L322.191 555.308C321.749 555.425 321.31 555.542 320.868 555.659L330.126 590.449ZM387.781 575.26C388.319 575.122 388.856 574.984 389.394 574.846L380.458 539.973C379.919 540.111 379.381 540.249 378.842 540.387L387.781 575.26ZM494.334 374.502C494.5 374.09 494.665 373.678 494.831 373.264L461.421 359.857C461.255 360.27 461.089 360.683 460.924 361.096L494.334 374.502ZM396.631 336.705C396.642 336.674 396.651 336.651 396.662 336.623L363.073 323.671C363.063 323.698 363.05 323.729 363.041 323.753L396.631 336.705ZM368.416 414.512C368.47 414.311 368.523 414.11 368.576 413.91L333.78 404.679C333.727 404.88 333.674 405.08 333.62 405.28L368.416 414.512ZM263.433 254.051C263.432 254.046 263.431 254.043 263.43 254.04C263.429 254.037 263.428 254.035 263.428 254.034C263.428 254.033 263.428 254.033 263.428 254.033C263.428 254.034 263.429 254.036 263.429 254.038L228.947 264.382C228.949 264.387 228.95 264.391 228.951 264.394C228.952 264.396 228.952 264.399 228.953 264.4C228.953 264.401 228.953 264.401 228.953 264.4C228.953 264.399 228.952 264.398 228.951 264.395L263.433 254.051ZM522.62 375.276C522.612 375.296 522.606 375.312 522.602 375.321C522.6 375.326 522.599 375.329 522.598 375.331C522.597 375.333 522.596 375.335 522.597 375.334C522.597 375.334 522.598 375.331 522.599 375.329C522.6 375.326 522.602 375.321 522.604 375.316C522.609 375.305 522.616 375.287 522.624 375.266L489.225 361.83C489.233 361.811 489.24 361.795 489.243 361.786C489.245 361.781 489.247 361.777 489.248 361.775C489.248 361.773 489.249 361.772 489.249 361.773C489.249 361.773 489.248 361.775 489.247 361.778C489.245 361.781 489.244 361.785 489.241 361.791C489.237 361.802 489.23 361.819 489.221 361.841L522.62 375.276ZM522.549 375.453C522.562 375.42 522.575 375.388 522.587 375.359C522.599 375.329 522.609 375.303 522.62 375.276L489.221 361.841C489.208 361.873 489.195 361.905 489.184 361.934C489.172 361.964 489.161 361.991 489.15 362.017L522.549 375.453ZM380.476 539.968C380.446 539.976 380.422 539.982 380.406 539.986C380.399 539.988 380.392 539.99 380.388 539.991C380.384 539.992 380.38 539.993 380.38 539.993C380.379 539.994 380.381 539.993 380.383 539.992C380.386 539.992 380.391 539.99 380.397 539.989C380.41 539.985 380.431 539.98 380.458 539.973L389.394 574.846C389.424 574.839 389.449 574.832 389.464 574.828C389.472 574.826 389.478 574.825 389.483 574.823C389.486 574.822 389.49 574.822 389.49 574.821C389.491 574.821 389.489 574.822 389.487 574.822C389.484 574.823 389.479 574.824 389.473 574.826C389.461 574.829 389.439 574.835 389.412 574.842L380.476 539.968ZM298.585 445.402C298.588 445.401 298.59 445.401 298.591 445.401C298.591 445.401 298.592 445.401 298.59 445.401C298.589 445.401 298.586 445.401 298.583 445.402C298.579 445.402 298.575 445.403 298.569 445.404L303.274 481.095C303.271 481.095 303.269 481.096 303.269 481.096C303.268 481.096 303.268 481.096 303.269 481.096C303.27 481.095 303.273 481.095 303.277 481.095C303.28 481.094 303.285 481.094 303.29 481.093L298.585 445.402ZM285.208 607.331C285.207 607.328 285.205 607.326 285.205 607.325C285.205 607.325 285.205 607.325 285.206 607.327C285.207 607.329 285.209 607.333 285.211 607.337C285.214 607.342 285.217 607.348 285.221 607.355L316.719 589.923C316.721 589.926 316.722 589.928 316.722 589.929C316.723 589.929 316.723 589.929 316.721 589.927C316.721 589.925 316.718 589.921 316.716 589.917C316.713 589.912 316.71 589.906 316.706 589.899L285.208 607.331ZM467.103 442.302C467.149 442.21 467.189 442.128 467.218 442.068L434.869 426.271C434.868 426.273 434.87 426.27 434.874 426.262C434.877 426.255 434.884 426.241 434.894 426.222L467.103 442.302ZM434.893 426.222C434.88 426.248 434.875 426.26 434.87 426.27L467.223 442.058C467.24 442.024 467.256 441.99 467.267 441.968L434.893 426.222ZM263.429 254.038C263.432 254.047 263.434 254.055 263.435 254.059C263.437 254.063 263.438 254.066 263.437 254.065C263.437 254.065 263.437 254.064 263.436 254.062C263.436 254.061 263.435 254.059 263.435 254.056C263.433 254.051 263.431 254.043 263.428 254.034L228.946 264.378C228.943 264.369 228.941 264.362 228.94 264.357C228.939 264.353 228.938 264.35 228.938 264.351C228.938 264.351 228.938 264.352 228.939 264.354C228.939 264.355 228.94 264.357 228.941 264.36C228.942 264.365 228.944 264.373 228.947 264.382L263.429 254.038ZM591.887 617.586L627.887 617.739L627.887 617.738L591.887 617.586ZM447.898 761.853L447.744 725.853L447.742 725.853L447.898 761.853ZM311.545 761.853L311.377 797.852L311.389 797.853L311.545 761.853ZM226.284 734.889L247.326 705.678L247.319 705.673L247.312 705.668L226.284 734.889ZM173.904 662.412L208.087 651.121L208.084 651.111L173.904 662.412ZM151.026 582.32L185.968 573.656L185.967 573.653L151.026 582.32ZM152.527 527.019L187.06 537.191L187.062 537.184L152.527 527.019ZM214.78 474.447L219.279 510.165L219.291 510.163L214.78 474.447ZM302.881 462.991L298.182 427.299L298.175 427.3L302.881 462.991ZM376.393 453.398L371.868 417.684L371.845 417.687L371.821 417.69L376.393 453.398ZM400.576 453.758L391.074 488.481L391.092 488.486L391.11 488.491L400.576 453.758ZM426.864 486.622L391.157 491.201L391.158 491.212L391.159 491.223L426.864 486.622ZM407.625 521.757L422.063 554.735L422.086 554.725L422.109 554.715L407.625 521.757ZM370.388 534.111L361.061 499.34L361.055 499.342L370.388 534.111ZM312.639 549.211L321.613 584.075L321.621 584.073L321.629 584.07L312.639 549.211ZM270.261 560.226L279.402 595.046L279.431 595.038L279.459 595.031L270.261 560.226ZM260.013 567.792L292.95 582.324L292.959 582.303L292.968 582.283L260.013 567.792ZM261.352 580.359L293.241 563.654L293.215 563.605L293.189 563.555L261.352 580.359ZM283.805 621.508L315.138 603.781L315.128 603.764L315.119 603.747L283.805 621.508ZM301.885 627.489L319.073 659.121L319.108 659.102L319.143 659.083L301.885 627.489ZM306.307 608.386L338.112 591.52L338.107 591.51L306.307 608.386ZM302.326 601.081L333.852 583.699L333.803 583.61L333.753 583.522L302.326 601.081ZM299.878 596.668L268.336 614.02L268.374 614.09L268.413 614.159L299.878 596.668ZM299.307 585.229L266.195 571.101L266.18 571.136L266.165 571.172L299.307 585.229ZM307.972 577.728L317.197 612.526L317.222 612.519L317.248 612.512L307.972 577.728ZM325.497 573.054L316.239 538.265L316.23 538.267L316.221 538.27L325.497 573.054ZM369.311 561.419L360.136 526.607L360.122 526.611L360.108 526.615L369.311 561.419ZM383.312 557.823L392.084 592.738L392.167 592.718L392.249 592.696L383.312 557.823ZM397.688 554.114L406.821 588.936L406.865 588.924L406.909 588.913L397.688 554.114ZM453.658 483.566L417.686 482.148L417.686 482.155L417.685 482.163L453.658 483.566ZM475.051 474.022L498.065 446.339L498.06 446.334L475.051 474.022ZM570.331 476.065L592.416 504.495L592.456 504.464L592.496 504.432L570.331 476.065ZM583.614 474.43L598.298 441.561L598.247 441.539L598.196 441.516L583.614 474.43ZM591.349 485.396L627.266 482.951L627.253 482.771L627.239 482.592L591.349 485.396ZM591.528 487.488L555.69 490.896L555.703 491.03L555.716 491.164L591.528 487.488ZM591.904 493.354H627.904V493.217L627.902 493.08L591.904 493.354ZM591.936 524.862L627.936 524.822L627.936 524.814L627.936 524.806L591.936 524.862ZM382.871 146.333L346.871 146.441L346.871 146.446L382.871 146.333ZM357.138 110.43L345.138 144.371L345.142 144.372L357.138 110.43ZM321.483 114.891L342.275 144.28L342.277 144.278L321.483 114.891ZM304.659 149.193L268.659 149.151L268.659 149.157L304.659 149.193ZM304.627 296.091L340.627 296.091L340.627 296.079L304.627 296.091ZM304.627 349.169L311.235 384.558L340.627 379.069V349.169H304.627ZM274.961 354.709L240.509 365.154L249.867 396.018L281.569 390.097L274.961 354.709ZM271.958 344.806L237.492 355.203L237.499 355.227L237.507 355.251L271.958 344.806ZM258.463 300.062L223.99 310.434L223.993 310.444L258.463 300.062ZM246.192 259.223L211.715 269.582L211.717 269.588L211.719 269.595L246.192 259.223ZM225.583 190.701L191.114 201.09L191.119 201.105L191.123 201.12L225.583 190.701ZM190.972 160.387L188.011 196.265L188.021 196.266L188.032 196.267L190.972 160.387ZM157.325 174.049L129.353 151.387L129.346 151.395L129.339 151.404L157.325 174.049ZM150.847 213.204L185.336 202.884L185.335 202.881L150.847 213.204ZM182.781 319.476L148.311 329.861L148.312 329.863L182.781 319.476ZM198.528 371.754L233.006 361.399L233.003 361.388L198.528 371.754ZM211.99 416.662L177.506 426.999L177.507 427.003L211.99 416.662ZM217.881 436.305L252.383 426.03L252.373 425.997L252.363 425.964L217.881 436.305ZM232.061 445.505L227.413 409.806L227.187 409.836L226.962 409.868L232.061 445.505ZM336.74 431.876L341.388 467.575L341.425 467.57L341.461 467.565L336.74 431.876ZM347.624 422.463L382.273 432.236L382.275 432.227L382.277 432.219L347.624 422.463ZM351.018 409.896L316.222 400.665L316.211 400.706L316.2 400.747L351.018 409.896ZM357.709 387.181L391.556 399.442L391.565 399.417L391.574 399.392L357.709 387.181ZM371.954 350.215L338.517 336.876L338.512 336.889L338.507 336.901L371.954 350.215ZM379.754 330.441L413.316 343.465L413.338 343.407L413.361 343.35L379.754 330.441ZM379.836 330.229L346.246 317.278L346.238 317.3L346.23 317.321L379.836 330.229ZM382.871 317.172L346.871 317.096L346.871 317.134V317.172H382.871ZM489.786 303.869L457.016 318.774L457.026 318.796L457.037 318.818L489.786 303.869ZM467.838 283.736L455.435 317.532L455.439 317.533L467.838 283.736ZM418.15 306.386L451.458 320.046L451.463 320.035L418.15 306.386ZM386.314 385.285L419.733 398.67L419.738 398.658L419.743 398.645L386.314 385.285ZM380.358 400.156L413.764 413.574L413.771 413.557L413.777 413.541L380.358 400.156ZM378.269 407.379L413.197 416.099L413.377 415.378L413.527 414.65L378.269 407.379ZM378.188 407.706L343.26 398.986L343.26 398.987L378.188 407.706ZM386.347 423.166L398.799 389.388L398.785 389.383L398.772 389.378L386.347 423.166ZM434.664 440.978L447.28 407.261L447.198 407.231L447.117 407.201L434.664 440.978ZM450.998 434.262L418.708 418.346L418.57 418.626L418.437 418.908L450.998 434.262ZM451.341 433.576L483.168 450.4L483.4 449.96L483.621 449.513L451.341 433.576ZM454.213 427.268L487.703 440.473L487.711 440.454L487.719 440.435L454.213 427.268ZM461.948 407.461L428.389 394.43L428.386 394.438L461.948 407.461ZM470.221 386.315L503.69 399.574L503.705 399.537L503.719 399.5L470.221 386.315ZM477.629 367.799L510.994 381.32L511.017 381.263L511.039 381.206L477.629 367.799ZM490.406 335.442L524.043 348.271L524.057 348.234L524.071 348.196L490.406 335.442ZM585.442 334.38L615.298 314.265L615.296 314.262L585.442 334.38ZM553.002 317.351L553.569 281.356L553.285 281.351H553.002V317.351ZM515.797 343.352L481.937 331.124L481.934 331.132L481.931 331.14L515.797 343.352ZM511.913 353.614L545.357 366.938L545.362 366.924L545.368 366.91L511.913 353.614ZM504.129 373.012L537.518 386.474L537.525 386.456L537.532 386.438L504.129 373.012ZM487.469 415.158L521.106 427.985L521.111 427.973L521.115 427.961L487.469 415.158ZM508.601 465.818L522.173 432.475L522.171 432.474L508.601 465.818ZM559.79 444.083L592.977 458.033L592.985 458.014L592.993 457.995L559.79 444.083ZM588.966 371.95L555.383 358.981L555.382 358.986L588.966 371.95ZM591.944 532.004L555.944 532.043L555.944 532.044L591.944 532.004ZM384.926 557.41L393.864 592.283L393.921 592.268L393.978 592.253L384.926 557.41ZM326.82 572.702L317.562 537.913L317.562 537.913L326.82 572.702ZM300.957 598.615L332.467 581.204L332.461 581.194L332.456 581.184L300.957 598.615ZM302.525 601.442L270.999 618.824L271 618.825L302.525 601.442ZM376.499 453.385L381.023 489.099L381.026 489.099L376.499 453.385ZM306.441 462.522L311.139 498.214L311.14 498.214L306.441 462.522ZM300.938 463.247L305.626 498.941L305.634 498.94L305.643 498.938L300.938 463.247ZM478.126 366.561L444.716 353.153L444.716 353.153L478.126 366.561ZM451.442 433.371L419.164 417.43L419.162 417.433L451.442 433.371ZM451.08 434.095L483.447 449.855L483.451 449.846L483.456 449.837L451.08 434.095ZM505.921 368.558L472.556 355.039L472.537 355.084L472.519 355.13L505.921 368.558ZM246.188 259.21L211.695 269.516L211.703 269.543L211.711 269.569L246.188 259.21ZM351.178 409.295L385.974 418.526L385.974 418.525L351.178 409.295ZM379.867 330.147L346.278 317.195L346.278 317.197L379.867 330.147ZM300.922 463.249L296.234 427.556L296.225 427.557L296.216 427.558L300.922 463.249ZM384.944 557.405L376.201 522.483L376.046 522.522L375.892 522.562L384.944 557.405ZM505.925 368.548L539.29 382.068L539.307 382.026L539.324 381.984L505.925 368.548ZM505.85 368.735L539.248 382.171L539.251 382.164L505.85 368.735ZM384.953 557.403L393.696 592.325L393.792 592.301L393.889 592.276L384.953 557.403ZM300.97 598.639L269.461 616.05L269.467 616.061L269.472 616.071L300.97 598.639ZM451.047 434.164L418.679 418.404L418.674 418.416L451.047 434.164ZM451.044 434.17L483.334 450.086L483.376 450.002L483.416 449.918L451.044 434.17ZM246.187 259.206L280.68 248.9L280.675 248.881L280.669 248.862L246.187 259.206ZM555.887 617.433C555.629 678.285 508.315 725.595 447.744 725.853L448.052 797.853C548.278 797.425 627.46 717.986 627.887 617.739L555.887 617.433ZM447.742 725.853C425.096 725.951 402.417 726 379.869 726V798C402.521 798 425.303 797.951 448.053 797.853L447.742 725.853ZM379.869 726C357.319 726 334.183 725.951 311.702 725.853L311.389 797.853C333.978 797.951 357.218 798 379.869 798V726ZM311.714 725.853C287.311 725.739 265.209 718.56 247.326 705.678L205.243 764.099C235.954 786.222 272.826 797.672 311.377 797.852L311.714 725.853ZM247.312 705.668C229.361 692.75 215.676 674.097 208.087 651.121L139.72 673.703C151.844 710.408 174.384 741.892 205.256 764.109L247.312 705.668ZM208.084 651.111C200.256 627.436 193.029 602.134 185.968 573.656L116.084 590.984C123.513 620.945 131.233 648.035 139.724 673.713L208.084 651.111ZM185.967 573.653C183.084 562.03 183.306 549.937 187.06 537.191L117.994 516.847C110.783 541.328 109.993 566.43 116.085 590.987L185.967 573.653ZM187.062 537.184C189.83 527.783 193.954 522.029 198.317 518.344C202.698 514.643 209.215 511.432 219.279 510.165L210.281 438.729C188.558 441.465 168.42 449.35 151.857 463.339C135.275 477.345 124.167 495.875 117.992 516.854L187.062 537.184ZM391.11 488.491C391.436 488.58 391.358 488.603 391.062 488.413C390.757 488.215 390.487 487.961 390.313 487.744C389.927 487.261 390.738 487.936 391.157 491.201L462.572 482.042C458.832 452.882 441.065 427.479 410.042 419.025L391.11 488.491ZM391.159 491.223C391.219 491.682 391.166 491.778 391.203 491.569C391.241 491.355 391.352 490.948 391.623 490.452C391.897 489.953 392.248 489.52 392.607 489.195C392.964 488.872 393.195 488.775 393.141 488.799L422.109 554.715C451.324 541.876 466.515 512.639 462.569 482.02L391.159 491.223ZM393.187 488.779C383.6 492.976 372.884 496.169 361.061 499.34L379.714 568.882C392.14 565.549 407.239 561.225 422.063 554.735L393.187 488.779ZM361.055 499.342C342.014 504.453 322.616 509.46 303.648 514.352L321.629 584.07C340.551 579.19 360.284 574.098 379.721 568.881L361.055 499.342ZM303.664 514.348C289.76 517.927 275.285 521.662 261.063 525.421L279.459 595.031C293.435 591.337 307.711 587.653 321.613 584.075L303.664 514.348ZM261.12 525.406C249.377 528.488 234.455 536.48 227.059 553.301L292.968 582.283C288.705 591.979 281.06 594.611 279.402 595.046L261.12 525.406ZM227.077 553.26C219.675 570.037 223.854 586.439 229.514 597.163L293.189 563.555C294.019 565.127 297.252 572.574 292.95 582.324L227.077 553.26ZM229.462 597.064C236.786 611.045 244.533 625.238 252.491 639.269L315.119 603.747C307.542 590.389 300.179 576.899 293.241 563.654L229.462 597.064ZM252.472 639.235C258.185 649.333 267.59 658.479 280.586 662.767C293.88 667.154 307.648 665.329 319.073 659.121L284.697 595.857C289.416 593.293 296.192 592.098 303.146 594.393C309.803 596.589 313.521 600.923 315.138 603.781L252.472 639.235ZM319.143 659.083C331.349 652.416 340.04 641.082 343.174 627.572C346.211 614.475 343.543 601.762 338.112 591.52L274.502 625.251C273.118 622.641 271.56 617.666 273.035 611.306C274.606 604.532 279.063 598.935 284.627 595.896L319.143 659.083ZM331.42 579.316C334.848 585.548 335.152 592.914 332.449 599.286L266.165 571.172C260.329 584.931 261.024 600.729 268.336 614.02L331.42 579.316ZM332.419 599.357C329.646 605.856 324.028 610.715 317.197 612.526L298.747 542.93C284.148 546.8 272.134 557.183 266.195 571.101L332.419 599.357ZM317.248 612.512L334.774 607.838L316.221 538.27L298.695 542.944L317.248 612.512ZM378.485 596.23C382.966 595.049 387.493 593.892 392.084 592.738L374.54 522.909C369.764 524.108 364.957 525.337 360.136 526.607L378.485 596.23ZM406.909 588.913C430.45 582.675 451.858 571.521 467.253 552.116C482.605 532.763 488.68 509.357 489.631 484.968L417.685 482.163C417.119 496.701 413.803 503.641 410.846 507.368C407.932 511.041 402.114 515.699 388.467 519.315L406.909 588.913ZM489.63 484.983C489.286 493.713 484.022 501.463 476.076 505.012L446.71 439.273C429.691 446.875 418.422 463.483 417.686 482.148L489.63 484.983ZM476.076 505.012C468.104 508.573 458.772 507.302 452.042 501.709L498.06 446.334C483.66 434.368 463.754 431.659 446.71 439.273L476.076 505.012ZM452.037 501.705C472.194 518.462 495.413 530.071 521.751 530.633C548.162 531.197 571.773 520.53 592.416 504.495L548.246 447.635C536.155 457.027 528.265 458.756 523.288 458.65C518.239 458.542 510.185 456.415 498.065 446.339L452.037 501.705ZM592.496 504.432C585.763 509.693 576.736 510.758 569.032 507.345L598.196 441.516C581.713 434.213 562.471 436.52 548.167 447.697L592.496 504.432ZM568.93 507.299C561.294 503.888 556.111 496.564 555.458 488.2L627.239 482.592C625.835 464.619 614.713 448.895 598.298 441.561L568.93 507.299ZM555.432 487.841C555.519 489.117 555.631 490.272 555.69 490.896L627.366 484.08C627.295 483.33 627.277 483.113 627.266 482.951L555.432 487.841ZM555.716 491.164C555.869 492.654 555.902 493.252 555.905 493.629L627.902 493.08C627.873 489.175 627.546 485.818 627.34 483.811L555.716 491.164ZM555.904 493.354C555.904 503.895 555.92 514.431 555.936 524.918L627.936 524.806C627.92 514.31 627.904 503.83 627.904 493.354H555.904ZM418.871 146.225C418.775 114.412 398.794 86.969 369.133 76.4868L345.142 144.372C346.068 144.7 346.433 145.112 346.571 145.304C346.702 145.488 346.869 145.798 346.871 146.441L418.871 146.225ZM369.137 76.4882C346.386 68.4448 321.058 71.0907 300.689 85.5036L342.277 144.278C342.494 144.125 342.676 144.053 342.949 144.019C343.244 143.982 343.97 143.958 345.138 144.371L369.137 76.4882ZM300.691 85.5019C279.541 100.465 268.688 124.449 268.659 149.151L340.659 149.234C340.661 147.272 341.077 146.034 341.396 145.384C341.7 144.765 342.007 144.469 342.275 144.28L300.691 85.5019ZM268.659 149.157C268.61 198.14 268.61 247.119 268.627 296.103L340.627 296.079C340.61 247.109 340.61 198.166 340.659 149.229L268.659 149.157ZM268.627 296.091V349.169H340.627V296.091H268.627ZM298.018 313.781L268.352 319.321L281.569 390.097L311.235 384.558L298.018 313.781ZM309.412 344.264L306.41 334.361L237.507 355.251L240.509 365.154L309.412 344.264ZM306.424 334.409C301.949 319.574 297.435 304.623 292.934 289.679L223.993 310.444C228.499 325.406 233.025 340.394 237.492 355.203L306.424 334.409ZM292.937 289.689C290.892 282.894 288.851 276.097 286.807 269.289C284.763 262.484 282.717 255.668 280.666 248.851L211.719 269.595C213.763 276.391 215.804 283.188 217.849 289.996C219.892 296.801 221.939 303.616 223.99 310.434L292.937 289.689ZM260.051 180.312C251.138 150.742 227.223 127.237 193.913 124.507L188.032 196.267C188.207 196.281 188.317 196.303 188.373 196.317C188.429 196.331 188.456 196.342 188.466 196.346C188.476 196.35 188.492 196.358 188.521 196.376C188.549 196.394 188.609 196.434 188.697 196.512C188.985 196.764 190.168 197.951 191.114 201.09L260.051 180.312ZM193.934 124.509C169.595 122.5 145.377 131.607 129.353 151.387L185.297 196.711C185.372 196.618 185.426 196.564 185.623 196.484C185.85 196.391 186.594 196.148 188.011 196.265L193.934 124.509ZM129.339 151.404C112.407 172.33 109.117 199.335 116.359 223.528L185.335 202.881C184.623 200.502 184.674 198.864 184.817 197.997C184.952 197.181 185.188 196.846 185.311 196.694L129.339 151.404ZM116.358 223.524C126.974 259.004 137.818 295.032 148.311 329.861L217.25 309.091C206.759 274.27 195.932 238.296 185.336 202.884L116.358 223.524ZM148.312 329.863C153.57 347.312 158.818 364.713 164.052 382.12L233.003 361.388C227.761 343.953 222.501 326.514 217.25 309.089L148.312 329.863ZM164.049 382.109C168.517 396.986 172.962 411.842 177.506 426.999L246.474 406.324C241.945 391.216 237.48 376.297 233.006 361.399L164.049 382.109ZM177.507 427.003L183.398 446.646L252.363 425.964L246.473 406.321L177.507 427.003ZM183.378 446.58C189.642 467.613 208.935 481.62 230.364 481.62V409.62C240.403 409.62 249.448 416.174 252.383 426.03L183.378 446.58ZM230.364 481.62C232.309 481.62 234.613 481.507 237.159 481.142L226.962 409.868C228.366 409.667 229.529 409.62 230.364 409.62V481.62ZM236.709 481.204L341.388 467.575L332.092 396.177L227.413 409.806L236.709 481.204ZM341.461 467.565C360.861 464.999 376.936 451.154 382.273 432.236L312.976 412.69C315.473 403.838 322.998 397.38 332.02 396.187L341.461 467.565ZM382.277 432.219C383.59 427.554 384.766 423.119 385.836 419.045L316.2 400.747C315.15 404.746 314.106 408.678 312.972 412.707L382.277 432.219ZM391.574 399.392C395.797 387.682 400.555 375.706 405.402 363.529L338.507 336.901C333.726 348.911 328.53 361.97 323.843 374.969L391.574 399.392ZM405.392 363.554C408.035 356.928 410.694 350.222 413.316 343.465L346.193 317.418C343.691 323.865 341.128 330.33 338.517 336.876L405.392 363.554ZM413.361 343.35L413.442 343.137L346.23 317.321L346.148 317.533L413.361 343.35ZM418.871 317.247C418.969 270.532 419.067 208.811 418.871 146.22L346.871 146.446C347.067 208.838 346.969 270.4 346.871 317.096L418.871 317.247ZM522.556 288.965C514.186 270.562 498.89 256.782 480.238 249.939L455.439 317.533C456.067 317.764 456.415 318.022 456.594 318.187C456.769 318.347 456.903 318.525 457.016 318.774L522.556 288.965ZM480.242 249.94C440.934 235.513 400.295 255.011 384.838 292.737L451.463 320.035C451.955 318.832 452.475 318.156 452.799 317.813C453.125 317.467 453.36 317.341 453.459 317.296C453.554 317.253 453.671 317.216 453.873 317.209C454.068 317.202 454.578 317.217 455.435 317.532L480.242 249.94ZM384.842 292.726C374.006 319.151 363.233 346.034 352.885 371.925L419.743 398.645C430.087 372.765 440.755 346.144 451.458 320.046L384.842 292.726ZM352.895 371.9L346.939 386.772L413.777 413.541L419.733 398.67L352.895 371.9ZM346.952 386.739C344.528 392.773 343.412 398.163 343.011 400.108L413.527 414.65C413.632 414.141 413.694 413.876 413.756 413.645C413.785 413.536 413.806 413.469 413.814 413.443C413.823 413.415 413.809 413.462 413.764 413.574L346.952 386.739ZM343.341 398.66L343.26 398.986L413.116 416.426L413.197 416.099L343.341 398.66ZM343.26 398.987C337.222 423.172 350.283 448.261 373.922 456.954L398.772 389.378C409.878 393.462 415.922 405.183 413.116 416.425L343.26 398.987ZM373.894 456.943L422.212 474.756L447.117 407.201L398.799 389.388L373.894 456.943ZM422.048 474.695C427.843 476.864 433.646 477.779 439.152 477.779V405.779C441.655 405.779 444.455 406.204 447.28 407.261L422.048 474.695ZM439.152 477.779C457.61 477.779 475.227 467.288 483.56 449.616L418.437 418.908C422.331 410.649 430.549 405.779 439.152 405.779V477.779ZM487.719 440.435C490.332 433.785 492.929 427.135 495.509 420.484L428.386 394.438C425.843 400.992 423.283 407.546 420.707 414.1L487.719 440.435ZM495.506 420.492C498.245 413.439 500.948 406.494 503.69 399.574L436.752 373.055C433.913 380.222 431.133 387.364 428.389 394.43L495.506 420.492ZM503.719 399.5C506.092 393.472 508.524 387.413 510.994 381.32L444.265 354.279C441.741 360.507 439.212 366.803 436.722 373.13L503.719 399.5ZM524.071 348.196C531.252 329.243 531.253 308.018 522.535 288.92L457.037 318.818C457.196 319.168 457.621 320.364 456.741 322.688L524.071 348.196ZM615.296 314.262C601.173 293.306 578.092 281.742 553.569 281.356L552.434 353.347C553.781 353.368 554.533 353.67 554.859 353.841C555.165 354.002 555.379 354.188 555.588 354.498L615.296 314.262ZM553.002 281.351H552.251V353.351H553.002V281.351ZM552.251 281.351C536.847 281.351 521.772 285.667 508.911 294.828L550.684 353.471C550.566 353.555 550.506 353.561 550.622 353.525C550.754 353.485 551.257 353.351 552.251 353.351V281.351ZM508.911 294.828C496.025 304.008 487.097 316.836 481.937 331.124L549.657 355.579C550.08 354.406 550.473 353.796 550.645 353.561C550.805 353.341 550.83 353.367 550.684 353.471L508.911 294.828ZM481.931 331.14C480.783 334.323 479.614 337.409 478.458 340.319L545.368 366.91C546.823 363.25 548.265 359.439 549.662 355.563L481.931 331.14ZM470.741 359.55C465.206 373.278 459.351 387.825 453.822 402.356L521.115 427.961C526.356 414.187 531.957 400.266 537.518 386.474L470.741 359.55ZM453.831 402.331C439.3 440.438 456.034 483.292 495.03 499.163L522.171 432.474C521.542 432.218 521.251 431.967 521.127 431.844C520.993 431.71 520.89 431.561 520.808 431.365C520.69 431.081 520.335 430.006 521.106 427.985L453.831 402.331ZM495.028 499.162C504.316 502.942 514.06 504.858 523.809 504.858V432.858C523.539 432.858 523.002 432.812 522.173 432.475L495.028 499.162ZM523.809 504.858C554.15 504.858 581.009 486.508 592.977 458.033L526.602 430.134C525.951 431.683 525.218 432.299 524.888 432.523C524.538 432.76 524.208 432.858 523.809 432.858V504.858ZM592.993 457.995C604.626 430.229 614.028 406.993 622.551 384.914L555.382 358.986C547.162 380.278 538.027 402.865 526.586 430.172L592.993 457.995ZM622.549 384.919C631.461 361.842 629.701 335.643 615.298 314.265L555.586 354.495C555.781 354.785 555.929 355.128 555.982 355.684C556.036 356.269 556.001 357.381 555.383 358.981L622.549 384.919ZM627.887 617.738C628.008 589.124 627.975 560.095 627.944 531.964L555.944 532.044C555.975 560.208 556.007 589.044 555.887 617.434L627.887 617.738ZM375.989 522.537L374.374 522.951L392.249 592.696L393.864 592.283L375.989 522.537ZM360.108 526.615C345.986 530.349 331.899 534.098 317.562 537.913L336.077 607.492C350.423 603.674 364.456 599.94 378.514 596.222L360.108 526.615ZM317.562 537.913L316.239 538.265L334.755 607.843L336.077 607.492L317.562 537.913ZM268.413 614.159C268.767 614.796 269.109 615.415 269.459 616.047L332.456 581.184C332.11 580.56 331.736 579.883 331.343 579.177L268.413 614.159ZM270.8 618.463L270.999 618.824L334.051 584.06L333.852 583.699L270.8 618.463ZM271 618.825C272.412 621.386 273.483 623.33 274.508 625.261L338.107 591.51C336.764 588.98 335.408 586.522 334.05 584.06L271 618.825ZM410.078 419.034C393.585 414.521 377.631 416.953 371.972 417.671L381.026 489.099C384.469 488.663 386.605 488.418 388.623 488.372C390.556 488.327 391.215 488.52 391.074 488.481L410.078 419.034ZM371.974 417.67L371.868 417.684L380.917 489.113L381.023 489.099L371.974 417.67ZM371.821 417.69C348.443 420.683 324.707 423.807 301.742 426.83L311.14 498.214C334.126 495.189 357.735 492.081 380.964 489.107L371.821 417.69ZM301.743 426.83L298.182 427.299L307.579 498.683L311.139 498.214L301.743 426.83ZM298.175 427.3L296.232 427.556L305.643 498.938L307.586 498.682L298.175 427.3ZM456.769 322.613C452.916 332.718 448.823 342.919 444.716 353.153L511.536 379.968C515.605 369.83 519.93 359.053 524.043 348.271L456.769 322.613ZM444.716 353.153L444.219 354.392L511.039 381.206L511.536 379.968L444.716 353.153ZM420.723 414.062C420.577 414.43 420.365 414.922 420.08 415.535C419.794 416.15 419.514 416.721 419.164 417.43L483.721 449.311C484.396 447.944 486.127 444.472 487.703 440.473L420.723 414.062ZM419.162 417.433L419.061 417.638L483.621 449.513L483.722 449.308L419.162 417.433ZM419.514 416.751C419.094 417.546 418.767 418.225 418.704 418.354L483.456 449.837C483.496 449.754 483.465 449.818 483.422 449.906C483.372 450.005 483.284 450.179 483.168 450.4L419.514 416.751ZM280.67 248.865L280.666 248.852L211.711 269.569L211.715 269.582L280.67 248.865ZM385.815 419.127L385.974 418.526L316.382 400.064L316.222 400.665L385.815 419.127ZM385.974 418.525C388.143 410.352 389.715 404.525 391.556 399.442L323.861 374.919C320.738 383.54 318.37 392.568 316.381 400.064L385.974 418.525ZM413.426 343.179L413.457 343.098L346.278 317.197L346.246 317.278L413.426 343.179ZM413.457 343.1C414.596 340.145 418.871 329.871 418.871 317.172H346.871C346.871 316.461 346.931 315.9 346.987 315.525C347.043 315.156 347.099 314.951 347.1 314.948C347.101 314.945 347.091 314.983 347.063 315.071C347.035 315.158 346.992 315.287 346.928 315.468C346.864 315.652 346.783 315.873 346.674 316.16C346.561 316.46 346.443 316.767 346.278 317.195L413.457 343.1ZM219.291 510.163C248.113 506.523 277.372 502.666 305.627 498.94L296.216 427.558C267.928 431.288 238.864 435.119 210.269 438.731L219.291 510.163ZM305.61 498.943L305.626 498.941L296.25 427.554L296.234 427.556L305.61 498.943ZM393.978 592.253L393.996 592.248L375.892 522.562L375.874 522.566L393.978 592.253ZM555.936 524.901L555.944 532.043L627.944 531.965L627.936 524.822L555.936 524.901ZM478.47 340.29C476.511 345.206 474.53 350.13 472.526 355.112L539.324 381.984C541.32 377.02 543.346 371.984 545.357 366.938L478.47 340.29ZM472.56 355.029L472.556 355.039L539.286 382.078L539.29 382.068L472.56 355.029ZM472.519 355.13L472.448 355.306L539.251 382.164L539.322 381.987L472.519 355.13ZM472.451 355.298C471.877 356.724 471.302 358.155 470.727 359.587L537.532 386.438C538.103 385.019 538.674 383.598 539.248 382.171L472.451 355.298ZM388.554 519.292C384.42 520.376 380.27 521.44 376.016 522.53L393.889 592.276C398.11 591.194 402.458 590.08 406.821 588.936L388.554 519.292ZM376.209 522.481L376.201 522.483L393.688 592.327L393.696 592.325L376.209 522.481ZM269.448 616.026L269.461 616.05L332.48 581.228L332.467 581.204L269.448 616.026ZM269.472 616.071C269.934 616.905 270.419 617.781 270.898 618.639L333.753 583.522C333.357 582.812 332.944 582.066 332.468 581.206L269.472 616.071ZM483.416 449.918L483.419 449.912L418.674 418.416L418.671 418.422L483.416 449.918ZM483.289 450.178L483.334 450.086L418.753 418.253L418.708 418.346L483.289 450.178ZM483.414 449.924L483.447 449.855L418.713 418.336L418.679 418.404L483.414 449.924ZM280.682 248.905L280.68 248.9L211.694 269.511L211.695 269.516L280.682 248.905ZM280.669 248.862C273.819 226.028 266.956 203.15 260.042 180.283L191.123 201.12C198.011 223.9 204.851 246.703 211.705 269.55L280.669 248.862Z" fill="black" mask="url(#path-1-outside-1_565_3170)"/>
<mask id="path-3-outside-2_565_3170" maskUnits="userSpaceOnUse" x="150" y="46" width="517" height="726" fill="black">
<rect fill="white" x="150" y="46" width="517" height="726"/>
<path fill-rule="evenodd" clip-rule="evenodd" d="M486.898 735.853C567.296 735.51 630.545 672.136 630.887 591.586C631.007 563.084 630.975 534.151 630.944 506.004L630.936 498.862C630.92 488.37 630.904 477.862 630.904 467.354C630.887 465.214 630.708 463.236 630.528 461.488C630.463 460.801 630.398 460.115 630.349 459.396C629.973 454.591 627.004 450.391 622.614 448.43C618.224 446.486 613.117 447.107 609.331 450.065C576.597 475.493 546.328 474.855 514.051 448.022C510.216 444.835 504.929 444.116 500.393 446.143C495.856 448.169 492.854 452.598 492.658 457.566C491.141 496.492 473.876 518.26 436.688 528.114C432.439 529.228 428.19 530.317 423.952 531.403L423.944 531.405L423.926 531.41L422.312 531.823C417.628 533 412.961 534.193 408.311 535.419C394.221 539.145 380.161 542.886 365.82 546.702L364.497 547.054L346.972 551.728C343.088 552.758 339.89 555.519 338.307 559.229C336.74 562.922 336.936 567.138 338.878 570.668C339.251 571.339 339.61 571.987 339.957 572.615L339.97 572.639C340.439 573.486 340.888 574.296 341.326 575.081L341.525 575.442C342.91 577.954 344.124 580.155 345.307 582.386C349.354 590.017 347.527 597.861 340.885 601.489C334.179 605.134 326.901 602.748 322.805 595.508C315.038 581.814 307.482 567.972 300.352 554.359C297.936 549.783 297.463 545.306 299.013 541.792C300.58 538.23 304.219 535.549 309.261 534.226C323.36 530.5 337.736 526.79 351.639 523.211C370.584 518.325 390.149 513.275 409.388 508.111C421.512 504.859 434.42 501.101 446.625 495.757C460.496 489.661 467.871 476.195 465.864 460.622C463.661 443.446 454.327 431.778 439.576 427.758C431.023 425.417 422.066 426.553 415.499 427.385L415.393 427.398C392.089 430.382 368.416 433.498 345.441 436.522L341.881 436.991L339.938 437.247L339.922 437.249C311.65 440.977 282.489 444.821 253.78 448.447C221.993 452.451 200.47 470.639 191.527 501.019C186.045 519.632 185.539 538.23 190.026 556.32C197.271 585.539 204.745 611.736 212.904 636.412C222.76 666.252 240.873 691.321 265.284 708.889C289.582 726.391 319.068 735.706 350.545 735.853C373.08 735.951 396.268 736 418.869 736C441.469 736 464.2 735.951 486.898 735.853Z"/>
<path d="M624.442 308.38C617.294 297.774 605.48 291.564 592.002 291.351H591.251C582.635 291.351 575.015 293.721 568.798 298.15C562.58 302.578 557.783 309.082 554.797 317.352C553.524 320.881 552.219 324.33 550.913 327.614C548.929 332.595 546.925 337.575 544.925 342.548L544.921 342.558L544.85 342.735C544.276 344.161 543.702 345.587 543.129 347.012C537.581 360.772 531.854 375.006 526.469 389.158C518.555 409.912 527.644 431.696 547.601 439.818C552.659 441.877 557.799 442.858 562.809 442.858C578.131 442.858 592.23 433.69 598.79 418.083C610.327 390.547 619.595 367.636 627.966 345.95C633.009 332.893 631.719 319.182 624.442 308.38Z"/>
<path d="M528.786 277.869C524.527 268.505 516.727 261.364 506.838 257.736C486.49 250.268 465.587 259.795 457.15 280.386C446.381 306.648 435.66 333.399 425.314 359.285L419.358 374.156C418.183 377.081 417.579 379.876 417.269 381.379L417.188 381.706C415.572 388.178 419.081 394.861 425.347 397.166L473.664 414.978C475.149 415.534 476.65 415.779 478.151 415.779C483.079 415.779 487.779 412.968 489.998 408.262L490.044 408.17L490.047 408.164L490.08 408.095C490.151 407.95 490.238 407.771 490.341 407.576L490.442 407.371C491.138 405.962 492.249 403.711 493.213 401.268C495.807 394.665 498.386 388.063 500.948 381.461C503.689 374.401 506.43 367.358 509.221 360.315C511.652 354.137 514.133 347.96 516.629 341.799L517.126 340.561C521.214 330.375 525.423 319.886 529.406 309.442C533.437 298.803 533.224 287.593 528.786 277.869Z"/>
<path d="M421.871 120.333C421.822 104.024 411.721 89.9368 396.138 84.4295C383.703 80.0335 370.714 81.6514 360.483 88.8909C349.811 96.4409 343.676 108.942 343.659 123.193C343.61 172.153 343.61 221.114 343.627 270.091V323.169L313.961 328.709L310.958 318.806C306.487 303.984 301.967 289.015 297.463 274.062C293.367 260.449 289.288 246.836 285.192 233.223L285.188 233.21L285.187 233.206C278.335 210.365 271.483 187.525 264.583 164.701C259.263 147.052 246.323 135.727 229.972 134.387C216.51 133.276 204.255 138.26 196.325 148.049C187.888 158.475 185.522 172.758 189.847 187.204C200.453 222.65 211.288 258.651 221.781 293.476C227.035 310.913 232.289 328.333 237.528 345.754C241.999 360.641 246.453 375.529 250.99 390.662L256.881 410.305C258.545 415.894 263.669 419.62 269.364 419.62C269.919 419.62 270.49 419.587 271.061 419.505L375.74 405.876C380.929 405.19 385.205 401.496 386.624 396.463C387.848 392.116 388.958 387.932 390.018 383.896L390.178 383.295C392.256 375.46 394.227 368.033 396.709 361.181C401.164 348.826 406.141 336.308 410.954 324.215C413.582 317.629 416.192 311.044 418.754 304.441L418.836 304.229L418.867 304.147C420.138 300.853 421.871 296.358 421.871 291.172C421.969 244.466 422.067 182.824 421.871 120.333Z"/>
</mask>
<path fill-rule="evenodd" clip-rule="evenodd" d="M486.898 735.853C567.296 735.51 630.545 672.136 630.887 591.586C631.007 563.084 630.975 534.151 630.944 506.004L630.936 498.862C630.92 488.37 630.904 477.862 630.904 467.354C630.887 465.214 630.708 463.236 630.528 461.488C630.463 460.801 630.398 460.115 630.349 459.396C629.973 454.591 627.004 450.391 622.614 448.43C618.224 446.486 613.117 447.107 609.331 450.065C576.597 475.493 546.328 474.855 514.051 448.022C510.216 444.835 504.929 444.116 500.393 446.143C495.856 448.169 492.854 452.598 492.658 457.566C491.141 496.492 473.876 518.26 436.688 528.114C432.439 529.228 428.19 530.317 423.952 531.403L423.944 531.405L423.926 531.41L422.312 531.823C417.628 533 412.961 534.193 408.311 535.419C394.221 539.145 380.161 542.886 365.82 546.702L364.497 547.054L346.972 551.728C343.088 552.758 339.89 555.519 338.307 559.229C336.74 562.922 336.936 567.138 338.878 570.668C339.251 571.339 339.61 571.987 339.957 572.615L339.97 572.639C340.439 573.486 340.888 574.296 341.326 575.081L341.525 575.442C342.91 577.954 344.124 580.155 345.307 582.386C349.354 590.017 347.527 597.861 340.885 601.489C334.179 605.134 326.901 602.748 322.805 595.508C315.038 581.814 307.482 567.972 300.352 554.359C297.936 549.783 297.463 545.306 299.013 541.792C300.58 538.23 304.219 535.549 309.261 534.226C323.36 530.5 337.736 526.79 351.639 523.211C370.584 518.325 390.149 513.275 409.388 508.111C421.512 504.859 434.42 501.101 446.625 495.757C460.496 489.661 467.871 476.195 465.864 460.622C463.661 443.446 454.327 431.778 439.576 427.758C431.023 425.417 422.066 426.553 415.499 427.385L415.393 427.398C392.089 430.382 368.416 433.498 345.441 436.522L341.881 436.991L339.938 437.247L339.922 437.249C311.65 440.977 282.489 444.821 253.78 448.447C221.993 452.451 200.47 470.639 191.527 501.019C186.045 519.632 185.539 538.23 190.026 556.32C197.271 585.539 204.745 611.736 212.904 636.412C222.76 666.252 240.873 691.321 265.284 708.889C289.582 726.391 319.068 735.706 350.545 735.853C373.08 735.951 396.268 736 418.869 736C441.469 736 464.2 735.951 486.898 735.853Z" fill="#FFC30A"/>
<path d="M624.442 308.38C617.294 297.774 605.48 291.564 592.002 291.351H591.251C582.635 291.351 575.015 293.721 568.798 298.15C562.58 302.578 557.783 309.082 554.797 317.352C553.524 320.881 552.219 324.33 550.913 327.614C548.929 332.595 546.925 337.575 544.925 342.548L544.921 342.558L544.85 342.735C544.276 344.161 543.702 345.587 543.129 347.012C537.581 360.772 531.854 375.006 526.469 389.158C518.555 409.912 527.644 431.696 547.601 439.818C552.659 441.877 557.799 442.858 562.809 442.858C578.131 442.858 592.23 433.69 598.79 418.083C610.327 390.547 619.595 367.636 627.966 345.95C633.009 332.893 631.719 319.182 624.442 308.38Z" fill="#7AA2ED"/>
<path d="M528.786 277.869C524.527 268.505 516.727 261.364 506.838 257.736C486.49 250.268 465.587 259.795 457.15 280.386C446.381 306.648 435.66 333.399 425.314 359.285L419.358 374.156C418.183 377.081 417.579 379.876 417.269 381.379L417.188 381.706C415.572 388.178 419.081 394.861 425.347 397.166L473.664 414.978C475.149 415.534 476.65 415.779 478.151 415.779C483.079 415.779 487.779 412.968 489.998 408.262L490.044 408.17L490.047 408.164L490.08 408.095C490.151 407.95 490.238 407.771 490.341 407.576L490.442 407.371C491.138 405.962 492.249 403.711 493.213 401.268C495.807 394.665 498.386 388.063 500.948 381.461C503.689 374.401 506.43 367.358 509.221 360.315C511.652 354.137 514.133 347.96 516.629 341.799L517.126 340.561C521.214 330.375 525.423 319.886 529.406 309.442C533.437 298.803 533.224 287.593 528.786 277.869Z" fill="#7AA2ED"/>
<path d="M421.871 120.333C421.822 104.024 411.721 89.9368 396.138 84.4295C383.703 80.0335 370.714 81.6514 360.483 88.8909C349.811 96.4409 343.676 108.942 343.659 123.193C343.61 172.153 343.61 221.114 343.627 270.091V323.169L313.961 328.709L310.958 318.806C306.487 303.984 301.967 289.015 297.463 274.062C293.367 260.449 289.288 246.836 285.192 233.223L285.188 233.21L285.187 233.206C278.335 210.365 271.483 187.525 264.583 164.701C259.263 147.052 246.323 135.727 229.972 134.387C216.51 133.276 204.255 138.26 196.325 148.049C187.888 158.475 185.522 172.758 189.847 187.204C200.453 222.65 211.288 258.651 221.781 293.476C227.035 310.913 232.289 328.333 237.528 345.754C241.999 360.641 246.453 375.529 250.99 390.662L256.881 410.305C258.545 415.894 263.669 419.62 269.364 419.62C269.919 419.62 270.49 419.587 271.061 419.505L375.74 405.876C380.929 405.19 385.205 401.496 386.624 396.463C387.848 392.116 388.958 387.932 390.018 383.896L390.178 383.295C392.256 375.46 394.227 368.033 396.709 361.181C401.164 348.826 406.141 336.308 410.954 324.215C413.582 317.629 416.192 311.044 418.754 304.441L418.836 304.229L418.867 304.147C420.138 300.853 421.871 296.358 421.871 291.172C421.969 244.466 422.067 182.824 421.871 120.333Z" fill="white"/>
<path d="M341.881 436.991L339.532 419.145L339.528 419.145L341.881 436.991ZM423.926 531.41L428.394 548.846L428.394 548.846L423.926 531.41ZM339.938 437.247L342.29 455.093L342.29 455.093L339.938 437.247ZM544.921 342.558L528.221 335.841L528.221 335.841L544.921 342.558ZM648.944 505.984C648.941 503.597 648.939 501.217 648.936 498.842L612.936 498.881C612.939 501.256 612.941 503.637 612.944 506.024L648.944 505.984ZM344.23 454.837C345.414 454.681 346.601 454.525 347.79 454.368L343.092 418.676C341.903 418.833 340.717 418.989 339.532 419.145L344.23 454.837ZM506.483 415.54C506.514 415.478 506.545 415.414 506.581 415.341L474.303 399.4C474.269 399.468 474.233 399.541 474.199 399.611L506.483 415.54ZM342.29 455.093C342.94 455.007 343.585 454.922 344.233 454.837L339.528 419.145C338.882 419.231 338.232 419.316 337.585 419.402L342.29 455.093ZM417.656 445.255C417.671 445.254 417.686 445.252 417.704 445.249C417.722 445.247 417.742 445.245 417.762 445.242L413.235 409.528C413.093 409.546 413.285 409.522 413.13 409.541L417.656 445.255ZM357.288 566.751C357.221 566.63 357.158 566.515 357.089 566.39L325.563 583.771C325.628 583.889 325.697 584.015 325.762 584.133L357.288 566.751ZM369.126 564.449C369.566 564.332 370.01 564.214 370.448 564.097L361.191 529.308C360.748 529.425 360.311 529.542 359.868 529.66L369.126 564.449ZM426.781 549.26C427.319 549.122 427.857 548.984 428.394 548.846L419.458 513.973C418.919 514.111 418.38 514.249 417.842 514.387L426.781 549.26ZM533.334 348.502C533.5 348.09 533.665 347.679 533.831 347.264L500.421 333.857C500.256 334.269 500.089 334.683 499.924 335.096L533.334 348.502ZM435.631 310.705C435.645 310.667 435.65 310.656 435.662 310.623L402.073 297.671C402.064 297.693 402.048 297.736 402.041 297.753L435.631 310.705ZM407.416 388.512C407.47 388.311 407.523 388.109 407.576 387.91L372.78 378.679C372.726 378.881 372.674 379.08 372.62 379.28L407.416 388.512ZM302.433 228.051C302.431 228.045 302.43 228.04 302.429 228.039C302.429 228.036 302.429 228.037 302.429 228.038L267.947 238.382C267.949 238.388 267.951 238.393 267.951 238.395C267.952 238.397 267.952 238.397 267.951 238.395L302.433 228.051ZM561.62 349.276C561.612 349.297 561.605 349.313 561.601 349.323C561.599 349.328 561.598 349.332 561.597 349.334C561.596 349.336 561.595 349.337 561.596 349.337C561.596 349.337 561.597 349.334 561.598 349.331C561.599 349.328 561.601 349.324 561.603 349.318C561.608 349.306 561.615 349.288 561.624 349.266L528.225 335.83C528.234 335.81 528.24 335.793 528.244 335.784C528.246 335.779 528.248 335.775 528.249 335.773C528.249 335.771 528.25 335.769 528.25 335.77C528.25 335.77 528.249 335.773 528.248 335.775C528.246 335.778 528.244 335.783 528.242 335.789C528.237 335.8 528.23 335.818 528.221 335.841L561.62 349.276ZM561.549 349.453C561.562 349.42 561.575 349.388 561.587 349.359C561.599 349.33 561.609 349.303 561.62 349.276L528.221 335.841C528.208 335.873 528.195 335.905 528.184 335.934C528.172 335.964 528.161 335.991 528.15 336.017L561.549 349.453ZM419.476 513.968C419.446 513.976 419.421 513.982 419.406 513.987C419.398 513.989 419.391 513.99 419.387 513.991C419.383 513.992 419.38 513.993 419.379 513.993C419.378 513.994 419.38 513.993 419.383 513.993C419.385 513.992 419.39 513.991 419.397 513.989C419.409 513.986 419.431 513.98 419.458 513.973L428.394 548.846C428.425 548.839 428.449 548.832 428.465 548.828C428.473 548.826 428.479 548.824 428.483 548.823C428.487 548.822 428.491 548.821 428.491 548.821C428.492 548.821 428.49 548.821 428.488 548.822C428.485 548.823 428.48 548.824 428.474 548.826C428.461 548.829 428.439 548.835 428.412 548.842L419.476 513.968ZM337.585 419.402C337.579 419.402 337.573 419.403 337.571 419.403C337.568 419.404 337.568 419.404 337.569 419.404L342.274 455.095C342.28 455.094 342.286 455.093 342.288 455.093C342.291 455.093 342.291 455.093 342.29 455.093L337.585 419.402ZM324.208 581.331C324.208 581.331 324.208 581.331 324.211 581.336C324.213 581.339 324.217 581.347 324.221 581.355L355.719 563.923C355.719 563.923 355.719 563.923 355.717 563.918C355.715 563.915 355.711 563.907 355.706 563.899L324.208 581.331ZM506.103 416.302C506.148 416.212 506.187 416.132 506.218 416.068L473.869 400.271C473.869 400.272 473.871 400.268 473.875 400.26C473.879 400.252 473.885 400.239 473.894 400.222L506.103 416.302ZM473.893 400.222C473.889 400.23 473.886 400.237 473.883 400.243C473.88 400.249 473.878 400.253 473.876 400.258C473.874 400.262 473.872 400.265 473.871 400.267C473.87 400.269 473.87 400.27 473.87 400.27L506.223 416.058C506.241 416.022 506.262 415.977 506.267 415.968L473.893 400.222ZM630.887 591.586L666.887 591.739L666.887 591.738L630.887 591.586ZM486.898 735.853L486.744 699.853L486.742 699.853L486.898 735.853ZM350.545 735.853L350.377 771.852L350.389 771.853L350.545 735.853ZM265.284 708.889L286.326 679.678L286.319 679.673L286.312 679.668L265.284 708.889ZM212.904 636.412L247.087 625.121L247.084 625.111L212.904 636.412ZM190.026 556.32L224.968 547.656L224.967 547.653L190.026 556.32ZM191.527 501.019L226.06 511.191L226.062 511.184L191.527 501.019ZM253.78 448.447L258.279 484.165L258.291 484.163L253.78 448.447ZM341.881 436.991L337.182 401.299L337.175 401.3L341.881 436.991ZM415.393 427.398L410.873 391.683L410.847 391.686L410.821 391.69L415.393 427.398ZM439.576 427.758L430.074 462.481L430.092 462.486L430.11 462.491L439.576 427.758ZM465.864 460.622L430.157 465.201L430.158 465.212L430.159 465.223L465.864 460.622ZM446.625 495.757L461.063 528.735L461.086 528.725L461.109 528.715L446.625 495.757ZM409.388 508.111L400.061 473.34L400.055 473.342L409.388 508.111ZM351.639 523.211L360.613 558.075L360.621 558.073L360.629 558.07L351.639 523.211ZM309.261 534.226L318.402 569.046L318.431 569.038L318.459 569.031L309.261 534.226ZM299.013 541.792L331.95 556.324L331.959 556.303L331.968 556.283L299.013 541.792ZM300.352 554.359L332.241 537.654L332.215 537.605L332.189 537.555L300.352 554.359ZM322.805 595.508L354.138 577.781L354.128 577.764L354.119 577.747L322.805 595.508ZM340.885 601.489L358.073 633.121L358.108 633.102L358.143 633.083L340.885 601.489ZM345.307 582.386L377.112 565.52L377.107 565.51L345.307 582.386ZM341.326 575.081L372.852 557.7L372.803 557.611L372.753 557.522L341.326 575.081ZM338.878 570.668L307.336 588.02L307.374 588.09L307.413 588.159L338.878 570.668ZM338.307 559.229L305.195 545.101L305.18 545.136L305.165 545.172L338.307 559.229ZM346.972 551.728L356.197 586.526L356.222 586.519L356.248 586.512L346.972 551.728ZM364.497 547.054L355.239 512.265L355.23 512.267L355.221 512.27L364.497 547.054ZM408.311 535.419L399.136 500.607L399.122 500.611L399.108 500.615L408.311 535.419ZM422.312 531.823L431.084 566.738L431.167 566.718L431.25 566.696L422.312 531.823ZM436.688 528.114L445.821 562.936L445.865 562.924L445.909 562.913L436.688 528.114ZM492.658 457.566L456.686 456.148L456.686 456.155L456.685 456.163L492.658 457.566ZM514.051 448.022L537.065 420.339L537.06 420.334L514.051 448.022ZM609.331 450.065L631.416 478.495L631.456 478.464L631.496 478.432L609.331 450.065ZM622.614 448.43L637.298 415.561L637.247 415.539L637.196 415.516L622.614 448.43ZM630.349 459.396L666.266 456.951L666.253 456.771L666.239 456.592L630.349 459.396ZM630.528 461.488L594.69 464.896L594.703 465.03L594.716 465.164L630.528 461.488ZM630.904 467.354H666.904V467.217L666.902 467.08L630.904 467.354ZM630.936 498.862L666.936 498.822L666.936 498.814L666.936 498.806L630.936 498.862ZM421.871 120.333L385.871 120.441L385.871 120.446L421.871 120.333ZM396.138 84.4295L384.138 118.371L384.142 118.372L396.138 84.4295ZM360.483 88.8909L381.275 118.28L381.277 118.278L360.483 88.8909ZM343.659 123.193L307.659 123.151L307.659 123.157L343.659 123.193ZM343.627 270.091L379.627 270.091L379.627 270.079L343.627 270.091ZM343.627 323.169L350.235 358.558L379.627 353.069V323.169H343.627ZM313.961 328.709L279.509 339.154L288.867 370.018L320.569 364.097L313.961 328.709ZM310.958 318.806L276.492 329.203L276.499 329.227L276.507 329.251L310.958 318.806ZM297.463 274.062L262.99 284.434L262.993 284.444L297.463 274.062ZM285.192 233.223L250.713 243.575L250.716 243.585L250.719 243.595L285.192 233.223ZM264.583 164.701L230.114 175.09L230.119 175.105L230.123 175.12L264.583 164.701ZM229.972 134.387L227.011 170.265L227.021 170.266L227.032 170.267L229.972 134.387ZM196.325 148.049L168.353 125.387L168.346 125.395L168.339 125.404L196.325 148.049ZM189.847 187.204L224.336 176.884L224.335 176.881L189.847 187.204ZM221.781 293.476L187.311 303.861L187.312 303.863L221.781 293.476ZM237.528 345.754L272.006 335.399L272.003 335.388L237.528 345.754ZM250.99 390.662L216.506 400.999L216.507 401.003L250.99 390.662ZM256.881 410.305L291.383 400.03L291.373 399.997L291.363 399.964L256.881 410.305ZM271.061 419.505L266.413 383.806L266.187 383.836L265.962 383.868L271.061 419.505ZM375.74 405.876L380.388 441.575L380.425 441.57L380.461 441.565L375.74 405.876ZM386.624 396.463L421.273 406.236L421.275 406.227L421.277 406.219L386.624 396.463ZM390.018 383.896L355.222 374.665L355.211 374.706L355.2 374.747L390.018 383.896ZM396.709 361.181L430.556 373.442L430.565 373.417L430.574 373.392L396.709 361.181ZM410.954 324.215L377.517 310.876L377.512 310.889L377.507 310.901L410.954 324.215ZM418.754 304.441L452.316 317.465L452.339 317.407L452.361 317.349L418.754 304.441ZM418.836 304.229L385.245 291.28L385.237 291.301L385.229 291.322L418.836 304.229ZM421.871 291.172L385.871 291.096L385.871 291.134V291.172H421.871ZM528.786 277.869L496.016 292.774L496.026 292.796L496.037 292.818L528.786 277.869ZM506.838 257.736L494.435 291.532L494.439 291.533L506.838 257.736ZM457.15 280.386L490.458 294.046L490.463 294.035L457.15 280.386ZM425.314 359.285L458.733 372.67L458.738 372.658L458.743 372.645L425.314 359.285ZM419.358 374.156L452.764 387.574L452.771 387.557L452.777 387.541L419.358 374.156ZM417.269 381.379L452.198 390.098L452.377 389.378L452.527 388.65L417.269 381.379ZM417.188 381.706L452.116 390.425L452.116 390.425L417.188 381.706ZM425.347 397.166L437.799 363.388L437.785 363.383L437.772 363.378L425.347 397.166ZM473.664 414.978L486.28 381.261L486.198 381.231L486.117 381.201L473.664 414.978ZM489.998 408.262L457.71 392.342L457.571 392.624L457.437 392.908L489.998 408.262ZM490.341 407.576L522.168 424.4L522.4 423.96L522.621 423.513L490.341 407.576ZM493.213 401.268L526.703 414.473L526.711 414.454L526.719 414.435L493.213 401.268ZM500.948 381.461L467.389 368.43L467.386 368.438L500.948 381.461ZM509.221 360.315L542.69 373.574L542.705 373.537L542.719 373.5L509.221 360.315ZM516.629 341.799L549.994 355.32L550.017 355.263L550.039 355.207L516.629 341.799ZM529.406 309.442L563.043 322.271L563.057 322.234L563.071 322.196L529.406 309.442ZM624.442 308.38L654.298 288.265L654.296 288.262L624.442 308.38ZM592.002 291.351L592.569 255.356L592.285 255.351H592.002V291.351ZM554.797 317.352L520.937 305.124L520.934 305.132L520.931 305.14L554.797 317.352ZM550.913 327.614L584.357 340.938L584.362 340.924L584.368 340.91L550.913 327.614ZM543.129 347.012L576.518 360.474L576.525 360.456L576.532 360.438L543.129 347.012ZM526.469 389.158L560.106 401.985L560.111 401.973L560.115 401.961L526.469 389.158ZM547.601 439.818L561.173 406.475L561.171 406.474L547.601 439.818ZM598.79 418.083L631.977 432.033L631.985 432.014L631.993 431.995L598.79 418.083ZM627.966 345.95L594.383 332.981L594.382 332.986L627.966 345.95ZM630.944 506.004L594.944 506.043L594.944 506.044L630.944 506.004ZM423.926 531.41L432.864 566.282L432.922 566.268L432.98 566.253L423.926 531.41ZM365.82 546.702L356.562 511.913L356.562 511.913L365.82 546.702ZM339.957 572.615L371.46 555.193L371.456 555.184L339.957 572.615ZM341.525 575.442L309.999 592.823L310 592.825L341.525 575.442ZM415.499 427.385L420.019 463.1L420.026 463.099L415.499 427.385ZM345.441 436.522L350.139 472.214L350.14 472.214L345.441 436.522ZM339.938 437.247L335.232 401.556L335.225 401.557L339.938 437.247ZM517.126 340.561L550.536 353.968L550.536 353.968L517.126 340.561ZM490.442 407.371L458.164 391.43L458.162 391.433L490.442 407.371ZM490.08 408.095L522.45 423.848L522.456 423.837L490.08 408.095ZM544.921 342.558L511.557 329.035L511.538 329.082L511.519 329.13L544.921 342.558ZM285.188 233.21L250.697 243.524L250.703 243.544L250.709 243.563L285.188 233.21ZM390.178 383.295L424.974 392.525L424.974 392.525L390.178 383.295ZM418.867 304.147L385.278 291.195L385.277 291.198L418.867 304.147ZM339.922 437.249L344.627 472.94L344.635 472.939L339.922 437.249ZM423.944 531.405L415.273 496.465L415.082 496.512L414.891 496.562L423.944 531.405ZM544.925 342.548L578.288 356.071L578.306 356.028L578.324 355.984L544.925 342.548ZM544.85 342.735L578.248 356.171L578.251 356.164L544.85 342.735ZM423.952 531.403L432.624 566.343L432.756 566.31L432.889 566.276L423.952 531.403ZM339.97 572.639L308.467 590.061L308.472 590.071L339.97 572.639ZM490.047 408.164L522.414 423.924L522.417 423.916L490.047 408.164ZM490.044 408.17L522.332 424.089L522.372 424.01L522.411 423.93L490.044 408.17ZM285.187 233.206L319.678 222.892L319.673 222.877L319.669 222.862L285.187 233.206ZM594.888 591.433C594.629 652.285 547.315 699.595 486.744 699.853L487.052 771.853C587.278 771.425 666.46 691.986 666.887 591.739L594.888 591.433ZM486.742 699.853C464.096 699.951 441.417 700 418.869 700V772C441.521 772 464.303 771.951 487.053 771.853L486.742 699.853ZM418.869 700C396.319 700 373.183 699.951 350.702 699.853L350.389 771.853C372.978 771.951 396.217 772 418.869 772V700ZM350.714 699.853C326.311 699.739 304.209 692.56 286.326 679.678L244.243 738.099C274.954 760.222 311.826 771.672 350.377 771.852L350.714 699.853ZM286.312 679.668C268.361 666.75 254.676 648.097 247.087 625.121L178.72 647.703C190.844 684.408 213.384 715.892 244.256 738.109L286.312 679.668ZM247.084 625.111C239.256 601.436 232.029 576.134 224.968 547.656L155.084 564.984C162.513 594.945 170.233 622.035 178.724 647.713L247.084 625.111ZM224.967 547.653C222.084 536.03 222.306 523.937 226.06 511.191L156.994 490.847C149.783 515.328 148.993 540.43 155.085 564.987L224.967 547.653ZM226.062 511.184C228.83 501.783 232.954 496.029 237.317 492.344C241.698 488.643 248.215 485.432 258.279 484.165L249.281 412.729C227.558 415.465 207.42 423.35 190.857 437.339C174.275 451.345 163.167 469.875 156.992 490.854L226.062 511.184ZM430.11 462.491C430.436 462.58 430.358 462.603 430.062 462.413C429.757 462.215 429.487 461.961 429.313 461.744C428.927 461.261 429.738 461.936 430.157 465.201L501.572 456.042C497.832 426.882 480.066 401.479 449.042 393.025L430.11 462.491ZM430.159 465.223C430.219 465.682 430.166 465.778 430.203 465.569C430.241 465.355 430.352 464.948 430.623 464.452C430.897 463.953 431.248 463.52 431.607 463.195C431.964 462.872 432.195 462.775 432.141 462.799L461.109 528.715C490.324 515.876 505.515 486.639 501.569 456.02L430.159 465.223ZM432.187 462.779C422.6 466.976 411.884 470.169 400.061 473.34L418.714 542.882C431.14 539.549 446.239 535.225 461.063 528.735L432.187 462.779ZM400.055 473.342C381.014 478.453 361.616 483.46 342.648 488.352L360.629 558.07C379.551 553.19 399.284 548.098 418.721 542.881L400.055 473.342ZM342.664 488.348C328.761 491.927 314.285 495.662 300.063 499.421L318.459 569.031C332.435 565.337 346.711 561.653 360.613 558.075L342.664 488.348ZM300.12 499.406C288.377 502.488 273.455 510.48 266.059 527.301L331.968 556.283C327.705 565.979 320.061 568.61 318.402 569.046L300.12 499.406ZM266.077 527.26C258.675 544.037 262.854 560.439 268.514 571.163L332.189 537.555C333.019 539.127 336.252 546.574 331.95 556.324L266.077 527.26ZM268.462 571.064C275.786 585.045 283.533 599.238 291.491 613.269L354.119 577.747C346.542 564.389 339.179 550.899 332.241 537.654L268.462 571.064ZM291.472 613.235C297.185 623.333 306.59 632.479 319.586 636.767C332.88 641.154 346.648 639.329 358.073 633.121L323.697 569.857C328.416 567.293 335.192 566.098 342.146 568.393C348.803 570.589 352.521 574.923 354.138 577.781L291.472 613.235ZM358.143 633.083C370.348 626.416 379.04 615.082 382.174 601.572C385.211 588.475 382.543 575.762 377.112 565.52L313.502 599.251C312.118 596.641 310.56 591.666 312.035 585.306C313.606 578.532 318.063 572.935 323.627 569.896L358.143 633.083ZM370.42 553.316C373.848 559.548 374.152 566.914 371.449 573.286L305.165 545.172C299.329 558.931 300.024 574.729 307.336 588.02L370.42 553.316ZM371.419 573.357C368.646 579.855 363.028 584.715 356.197 586.526L337.747 516.93C323.148 520.8 311.134 531.183 305.195 545.101L371.419 573.357ZM356.248 586.512L373.774 581.838L355.221 512.27L337.695 516.944L356.248 586.512ZM417.485 570.23C421.966 569.049 426.493 567.892 431.084 566.738L413.54 496.909C408.764 498.108 403.957 499.337 399.136 500.607L417.485 570.23ZM445.909 562.913C469.45 556.675 490.858 545.521 506.253 526.116C521.605 506.763 527.68 483.357 528.631 458.968L456.685 456.163C456.119 470.701 452.803 477.641 449.846 481.368C446.932 485.041 441.114 489.699 427.467 493.315L445.909 562.913ZM528.63 458.983C528.286 467.713 523.022 475.463 515.076 479.012L485.71 413.273C468.691 420.875 457.422 437.483 456.686 456.148L528.63 458.983ZM515.076 479.012C507.104 482.573 497.772 481.302 491.042 475.709L537.06 420.334C522.66 408.368 502.754 405.659 485.71 413.273L515.076 479.012ZM491.037 475.705C511.194 492.462 534.413 504.071 560.751 504.633C587.162 505.197 610.773 494.53 631.416 478.495L587.246 421.635C575.155 431.027 567.265 432.756 562.288 432.65C557.239 432.542 549.185 430.415 537.065 420.339L491.037 475.705ZM631.496 478.432C624.763 483.693 615.736 484.758 608.032 481.345L637.196 415.516C620.713 408.213 601.471 410.52 587.167 421.697L631.496 478.432ZM607.93 481.299C600.294 477.888 595.111 470.564 594.458 462.2L666.239 456.592C664.835 438.619 653.713 422.895 637.298 415.561L607.93 481.299ZM594.432 461.841C594.519 463.117 594.631 464.272 594.69 464.896L666.366 458.079C666.295 457.33 666.277 457.113 666.266 456.951L594.432 461.841ZM594.716 465.164C594.869 466.654 594.902 467.252 594.905 467.629L666.902 467.08C666.873 463.175 666.546 459.818 666.34 457.811L594.716 465.164ZM594.904 467.354C594.904 477.895 594.92 488.431 594.936 498.918L666.936 498.806C666.92 488.31 666.904 477.83 666.904 467.354H594.904ZM457.871 120.225C457.775 88.4116 437.794 60.969 408.133 50.4868L384.142 118.372C385.068 118.7 385.433 119.112 385.571 119.304C385.702 119.488 385.869 119.798 385.871 120.441L457.871 120.225ZM408.137 50.4882C385.386 42.4448 360.058 45.0907 339.689 59.5036L381.277 118.278C381.494 118.125 381.676 118.053 381.949 118.019C382.244 117.982 382.97 117.958 384.138 118.371L408.137 50.4882ZM339.691 59.5019C318.541 74.4649 307.688 98.4489 307.659 123.151L379.659 123.234C379.661 121.272 380.077 120.034 380.396 119.384C380.7 118.765 381.008 118.469 381.275 118.28L339.691 59.5019ZM307.659 123.157C307.61 172.14 307.61 221.119 307.627 270.103L379.627 270.079C379.61 221.109 379.61 172.166 379.659 123.229L307.659 123.157ZM307.627 270.091V323.169H379.627V270.091H307.627ZM337.018 287.781L307.352 293.321L320.569 364.097L350.235 358.558L337.018 287.781ZM348.412 318.264L345.41 308.361L276.507 329.251L279.509 339.154L348.412 318.264ZM345.424 308.409C340.949 293.574 336.435 278.623 331.934 263.679L262.993 284.444C267.499 299.406 272.025 314.394 276.492 329.203L345.424 308.409ZM331.937 263.689C329.892 256.894 327.851 250.097 325.807 243.289C323.763 236.484 321.717 229.668 319.666 222.851L250.719 243.595C252.763 250.391 254.804 257.188 256.849 263.996C258.892 270.801 260.939 277.616 262.99 284.434L331.937 263.689ZM299.051 154.312C290.138 124.742 266.223 101.237 232.913 98.5072L227.032 170.267C227.207 170.281 227.317 170.303 227.373 170.317C227.429 170.331 227.456 170.342 227.466 170.346C227.476 170.35 227.492 170.358 227.521 170.376C227.549 170.394 227.609 170.434 227.697 170.512C227.985 170.764 229.168 171.951 230.114 175.09L299.051 154.312ZM232.934 98.5089C208.595 96.4999 184.377 105.607 168.353 125.387L224.297 170.711C224.372 170.618 224.426 170.564 224.623 170.484C224.85 170.391 225.594 170.148 227.011 170.265L232.934 98.5089ZM168.339 125.404C151.407 146.33 148.117 173.335 155.359 197.528L224.335 176.881C223.623 174.502 223.674 172.864 223.817 171.997C223.952 171.181 224.188 170.845 224.311 170.694L168.339 125.404ZM155.358 197.524C165.974 233.004 176.818 269.032 187.311 303.861L256.25 283.091C245.759 248.27 234.932 212.296 224.336 176.884L155.358 197.524ZM187.312 303.863C192.57 321.312 197.818 338.713 203.052 356.12L272.003 335.388C266.761 317.953 261.501 300.514 256.25 283.089L187.312 303.863ZM203.049 356.109C207.517 370.986 211.962 385.842 216.506 400.999L285.474 380.324C280.945 365.216 276.48 350.297 272.006 335.399L203.049 356.109ZM216.507 401.003L222.398 420.646L291.363 399.964L285.473 380.321L216.507 401.003ZM222.378 420.58C228.642 441.613 247.935 455.62 269.364 455.62V383.62C279.403 383.62 288.448 390.174 291.383 400.03L222.378 420.58ZM269.364 455.62C271.307 455.62 273.612 455.507 276.159 455.142L265.962 383.868C267.367 383.667 268.53 383.62 269.364 383.62V455.62ZM275.709 455.204L380.388 441.575L371.092 370.177L266.413 383.806L275.709 455.204ZM380.461 441.565C399.861 438.999 415.936 425.154 421.273 406.236L351.976 386.69C354.473 377.838 361.998 371.38 371.02 370.187L380.461 441.565ZM421.277 406.219C422.59 401.554 423.766 397.119 424.836 393.045L355.2 374.747C354.15 378.746 353.106 382.678 351.972 386.707L421.277 406.219ZM430.574 373.392C434.797 361.682 439.555 349.706 444.402 337.529L377.507 310.901C372.726 322.911 367.53 335.97 362.843 348.969L430.574 373.392ZM444.392 337.554C447.035 330.928 449.694 324.222 452.316 317.465L385.193 291.418C382.691 297.865 380.128 304.33 377.517 310.876L444.392 337.554ZM452.361 317.349L452.442 317.136L385.229 291.322L385.148 291.534L452.361 317.349ZM457.871 291.247C457.969 244.532 458.067 182.811 457.871 120.22L385.871 120.446C386.067 182.838 385.969 244.4 385.871 291.096L457.871 291.247ZM561.556 262.965C553.186 244.562 537.89 230.782 519.238 223.939L494.439 291.533C495.067 291.764 495.415 292.022 495.594 292.186C495.769 292.347 495.903 292.525 496.016 292.774L561.556 262.965ZM519.242 223.94C479.934 209.513 439.295 229.011 423.838 266.737L490.463 294.035C490.955 292.832 491.475 292.156 491.799 291.813C492.125 291.467 492.36 291.341 492.459 291.296C492.554 291.253 492.671 291.216 492.873 291.209C493.068 291.202 493.578 291.217 494.435 291.532L519.242 223.94ZM423.842 266.726C413.006 293.151 402.233 320.034 391.885 345.925L458.743 372.645C469.087 346.765 479.755 320.144 490.458 294.046L423.842 266.726ZM391.895 345.9L385.939 360.771L452.777 387.541L458.733 372.67L391.895 345.9ZM385.952 360.739C383.528 366.773 382.412 372.163 382.011 374.108L452.527 388.65C452.632 388.141 452.694 387.876 452.756 387.645C452.785 387.536 452.806 387.469 452.814 387.443C452.823 387.415 452.809 387.462 452.764 387.574L385.952 360.739ZM382.341 372.66L382.26 372.987L452.116 390.425L452.198 390.098L382.341 372.66ZM382.26 372.987C376.222 397.172 389.283 422.261 412.922 430.954L437.772 363.378C448.878 367.462 454.922 379.183 452.116 390.425L382.26 372.987ZM412.894 430.943L461.212 448.756L486.117 381.201L437.799 363.388L412.894 430.943ZM461.048 448.695C466.843 450.864 472.646 451.779 478.151 451.779V379.779C480.654 379.779 483.455 380.204 486.28 381.261L461.048 448.695ZM478.151 451.779C496.61 451.779 514.227 441.288 522.56 423.616L457.437 392.908C461.331 384.649 469.549 379.779 478.151 379.779V451.779ZM526.719 414.435C529.332 407.785 531.929 401.135 534.509 394.484L467.386 368.438C464.843 374.992 462.283 381.546 459.707 388.1L526.719 414.435ZM534.506 394.492C537.245 387.439 539.948 380.494 542.69 373.574L475.752 347.055C472.913 354.222 470.133 361.364 467.389 368.43L534.506 394.492ZM542.719 373.5C545.092 367.472 547.524 361.413 549.994 355.32L483.265 328.279C480.741 334.507 478.212 340.803 475.722 347.13L542.719 373.5ZM563.071 322.196C570.252 303.243 570.253 282.018 561.535 262.92L496.037 292.818C496.196 293.167 496.621 294.364 495.741 296.688L563.071 322.196ZM654.296 288.262C640.173 267.306 617.092 255.742 592.569 255.356L591.434 327.347C592.781 327.368 593.533 327.67 593.859 327.841C594.165 328.002 594.379 328.188 594.588 328.498L654.296 288.262ZM592.002 255.351H591.251V327.351H592.002V255.351ZM591.251 255.351C575.847 255.351 560.772 259.667 547.911 268.828L589.684 327.471C589.566 327.555 589.506 327.561 589.622 327.525C589.754 327.485 590.257 327.351 591.251 327.351V255.351ZM547.911 268.828C535.025 278.008 526.097 290.836 520.937 305.124L588.657 329.579C589.08 328.406 589.473 327.796 589.645 327.561C589.805 327.341 589.83 327.367 589.684 327.471L547.911 268.828ZM520.931 305.14C519.783 308.323 518.614 311.409 517.458 314.319L584.368 340.91C585.823 337.25 587.265 333.439 588.662 329.563L520.931 305.14ZM509.741 333.55C504.206 347.278 498.351 361.825 492.822 376.356L560.115 401.961C565.356 388.187 570.957 374.266 576.518 360.474L509.741 333.55ZM492.831 376.331C478.3 414.438 495.034 457.292 534.03 473.163L561.171 406.474C560.542 406.218 560.251 405.967 560.127 405.844C559.992 405.71 559.89 405.561 559.808 405.365C559.69 405.081 559.335 404.006 560.106 401.985L492.831 376.331ZM534.028 473.162C543.316 476.942 553.06 478.858 562.809 478.858V406.858C562.539 406.858 562.002 406.812 561.173 406.475L534.028 473.162ZM562.809 478.858C593.15 478.858 620.009 460.508 631.977 432.033L565.602 404.134C564.951 405.683 564.218 406.299 563.888 406.523C563.538 406.76 563.208 406.858 562.809 406.858V478.858ZM631.993 431.995C643.626 404.229 653.028 380.993 661.551 358.914L594.382 332.986C586.162 354.278 577.027 376.865 565.586 404.172L631.993 431.995ZM661.549 358.919C670.461 335.842 668.701 309.643 654.298 288.265L594.586 328.495C594.781 328.785 594.929 329.128 594.982 329.684C595.036 330.269 595.001 331.381 594.383 332.981L661.549 358.919ZM666.887 591.738C667.008 563.124 666.975 534.095 666.944 505.964L594.944 506.044C594.975 534.208 595.007 563.044 594.887 591.434L666.887 591.738ZM414.988 496.537L413.374 496.951L431.25 566.696L432.864 566.282L414.988 496.537ZM399.108 500.615C384.986 504.349 370.899 508.098 356.562 511.913L375.077 581.492C389.424 577.674 403.456 573.94 417.514 570.222L399.108 500.615ZM356.562 511.913L355.239 512.265L373.755 581.843L375.077 581.492L356.562 511.913ZM307.413 588.159C307.767 588.796 308.109 589.414 308.459 590.047L371.456 555.184C371.11 554.56 370.736 553.883 370.343 553.177L307.413 588.159ZM309.799 592.461L309.999 592.823L373.051 558.062L372.852 557.7L309.799 592.461ZM310 592.825C311.412 595.386 312.483 597.33 313.508 599.261L377.107 565.51C375.764 562.98 374.408 560.522 373.05 558.06L310 592.825ZM449.078 393.034C432.585 388.521 416.63 390.953 410.972 391.671L420.026 463.099C423.469 462.663 425.605 462.418 427.623 462.372C429.556 462.327 430.215 462.52 430.074 462.481L449.078 393.034ZM410.979 391.67L410.873 391.683L419.913 463.113L420.019 463.1L410.979 391.67ZM410.821 391.69C387.443 394.683 363.707 397.807 340.742 400.83L350.14 472.214C373.126 469.189 396.735 466.081 419.964 463.107L410.821 391.69ZM340.743 400.83L337.182 401.299L346.579 472.683L350.139 472.214L340.743 400.83ZM337.175 401.3L335.232 401.556L344.643 472.938L346.586 472.682L337.175 401.3ZM495.769 296.613C491.915 306.718 487.823 316.919 483.716 327.153L550.536 353.968C554.605 343.83 558.93 333.053 563.043 322.271L495.769 296.613ZM483.716 327.153L483.219 328.392L550.039 355.207L550.536 353.968L483.716 327.153ZM459.723 388.062C459.577 388.43 459.365 388.922 459.08 389.535C458.794 390.15 458.514 390.721 458.164 391.43L522.721 423.311C523.396 421.944 525.126 418.472 526.703 414.473L459.723 388.062ZM458.162 391.433L458.061 391.638L522.621 423.513L522.722 423.309L458.162 391.433ZM458.514 390.751C458.094 391.546 457.766 392.226 457.704 392.354L522.456 423.837C522.496 423.753 522.465 423.818 522.422 423.905C522.372 424.005 522.285 424.179 522.168 424.4L458.514 390.751ZM319.672 222.871L319.668 222.858L250.709 243.563L250.713 243.575L319.672 222.871ZM424.815 393.127L424.974 392.525L355.382 374.064L355.222 374.665L424.815 393.127ZM424.974 392.525C427.143 384.352 428.715 378.525 430.556 373.442L362.861 348.919C359.738 357.54 357.37 366.568 355.381 374.064L424.974 392.525ZM452.426 317.178L452.458 317.096L385.277 291.198L385.245 291.28L452.426 317.178ZM452.457 317.1C453.596 314.145 457.871 303.871 457.871 291.172H385.871C385.871 290.461 385.931 289.9 385.987 289.525C386.043 289.156 386.099 288.951 386.1 288.948C386.101 288.945 386.091 288.983 386.063 289.071C386.035 289.158 385.992 289.287 385.928 289.468C385.864 289.652 385.783 289.873 385.674 290.16C385.561 290.46 385.443 290.767 385.278 291.195L452.457 317.1ZM258.291 484.163C287.113 480.523 316.372 476.666 344.627 472.94L335.216 401.558C306.928 405.288 277.864 409.119 249.269 412.731L258.291 484.163ZM344.635 472.939L344.651 472.937L335.225 401.557L335.209 401.559L344.635 472.939ZM432.98 566.253L432.997 566.248L414.891 496.562L414.873 496.567L432.98 566.253ZM594.936 498.901L594.944 506.043L666.944 505.965L666.936 498.822L594.936 498.901ZM517.47 314.29C515.511 319.205 513.53 324.13 511.526 329.112L578.324 355.984C580.32 351.02 582.346 345.984 584.357 340.938L517.47 314.29ZM511.561 329.025L511.557 329.035L578.284 356.082L578.288 356.071L511.561 329.025ZM511.519 329.13L511.448 329.306L578.251 356.164L578.322 355.987L511.519 329.13ZM511.451 329.298C510.877 330.725 510.302 332.155 509.727 333.587L576.532 360.438C577.103 359.019 577.674 357.598 578.248 356.171L511.451 329.298ZM427.554 493.292C423.42 494.376 419.27 495.44 415.016 496.53L432.889 566.276C437.11 565.194 441.458 564.08 445.821 562.936L427.554 493.292ZM415.281 496.463L415.273 496.465L432.615 566.345L432.624 566.343L415.281 496.463ZM308.454 590.038L308.467 590.061L371.474 555.216L371.46 555.193L308.454 590.038ZM308.472 590.071C308.934 590.906 309.419 591.781 309.898 592.639L372.753 557.522C372.357 556.812 371.943 556.065 371.468 555.206L308.472 590.071ZM522.411 423.93L522.414 423.924L457.679 392.404L457.677 392.41L522.411 423.93ZM522.287 424.182L522.332 424.089L457.755 392.25L457.71 392.342L522.287 424.182ZM522.417 423.916L522.45 423.848L457.709 392.343L457.676 392.411L522.417 423.916ZM319.679 222.896L319.678 222.892L250.696 243.52L250.697 243.524L319.679 222.896ZM319.669 222.862C312.819 200.028 305.956 177.15 299.042 154.283L230.123 175.12C237.011 197.9 243.851 220.703 250.705 243.55L319.669 222.862Z" fill="black" mask="url(#path-3-outside-2_565_3170)"/>
</svg>
